<svg id="Layer_1" data-name="Layer 1" xmlns="http://www.w3.org/2000/svg" xmlns:xlink="http://www.w3.org/1999/xlink" viewBox="0 0 474.62 465.1"><defs><style>.cls-1,.cls-26,.cls-4,.cls-6{fill:none;}.cls-2{clip-path:url(#clip-path);}.cls-3{fill:#2d1e1c;}.cls-4{stroke:#ba2e17;}.cls-26,.cls-4,.cls-6{stroke-miterlimit:10;}.cls-5{fill:#505154;}.cls-6{stroke:#e66825;}.cls-7{fill:#666668;}.cls-8{fill:#fff;}.cls-9{fill:#232121;}.cls-10{fill:#2d1c18;}.cls-11{fill:#352725;}.cls-12{fill:#2e3138;}.cls-13{fill:#141414;}.cls-14{fill:#8c2509;}.cls-15{fill:#5b1302;}.cls-16{fill:#992a04;}.cls-17{fill:#a83916;}.cls-18{fill:#771d05;}.cls-19{fill:#3a0505;}.cls-20{fill:#230303;}.cls-21{fill:#7f1e04;}.cls-22{fill:#6b1700;}.cls-23{fill:#9e2505;}.cls-24{fill:#190202;}.cls-25{fill:#070707;}.cls-26{stroke:#d84512;}.cls-27{fill:#892a11;}.cls-28{fill:#7f2311;}.cls-29{fill:#282323;}.cls-30{fill:#302b2b;}.cls-31{fill:#141212;}.cls-32{fill:#f9f7f7;}.cls-33{fill:#3a3a3a;}.cls-34{fill:#020202;}.cls-35{fill:#993111;}</style><clipPath id="clip-path" transform="translate(-217.25 -128)"><rect class="cls-1" width="1366" height="768"/></clipPath></defs><title>Rahul Logo</title><g class="cls-2"><path class="cls-3" d="M318.5,444.5s-4.63,12.59-9,19c-3.19,4.68-8,6-13,11-6,9-3,15,0,24,4,12.08-15-9-15-9l-16-16,33-56Z" transform="translate(-217.25 -128)"/><path class="cls-4" d="M318.5,444.5s-4.63,12.59-9,19c-3.19,4.68-8,6-13,11-6,9-3,15,0,24,4,12.08-15-9-15-9l-16-16,33-56Z" transform="translate(-217.25 -128)"/><path class="cls-3" d="M309.12,409.89c-1.73-3.15-6-9.84-8.62-7.39-15,14-27.31,27.16-31,32-8.14,10.69-19.61,25.4-15,34,5,4,8,14,16,19,.84.42,5-5,5-10,0-7,2.92-14.32,6-16,11-6,16-.28,17-1l31.5-15c4.06-2.69-17.35-29.13-20.88-35.57" transform="translate(-217.25 -128)"/><path class="cls-4" d="M309.12,409.89c-1.73-3.15-6-9.84-8.62-7.39-15,14-27.31,27.16-31,32-8.14,10.69-19.61,25.4-15,34,5,4,8,14,16,19,.84.42,5-5,5-10,0-7,2.92-14.32,6-16,11-6,16-.28,17-1l31.5-15C334.06,442.77,312.65,416.33,309.12,409.89Z" transform="translate(-217.25 -128)"/></g><polygon class="cls-5" points="146.25 457.5 136.25 455.5 42.25 391.5 79.25 409.5 146.25 457.5"/><polygon class="cls-6" points="146.25 457.5 136.25 455.5 42.25 391.5 79.25 409.5 146.25 457.5"/><polygon class="cls-7" points="79.25 409.5 42.25 391.5 24.25 353.5 79.25 409.5"/><polygon class="cls-6" points="79.25 409.5 42.25 391.5 24.25 353.5 79.25 409.5"/><polygon class="cls-8" points="146.25 457.5 79.05 409.59 22.25 351.5 114.69 430.58 146.25 457.5"/><polygon class="cls-6" points="146.25 457.5 79.05 409.59 22.25 351.5 114.69 430.58 146.25 457.5"/><polygon class="cls-8" points="160.25 446.5 92.61 394.51 36.25 335.5 118.25 405.5 160.25 446.5"/><polygon class="cls-6" points="160.25 446.5 92.61 394.51 36.25 335.5 118.25 405.5 160.25 446.5"/><polygon class="cls-8" points="36.25 335.5 93.25 395.5 79.25 409.5 22.25 350.5 36.25 335.5"/><polygon class="cls-6" points="36.25 335.5 93.25 395.5 79.25 409.5 22.25 350.5 36.25 335.5"/><polygon class="cls-8" points="160.25 446.5 93.25 395.5 79.25 409.5 146.25 457.5 160.25 446.5"/><polygon class="cls-6" points="160.25 446.5 93.25 395.5 79.25 409.5 146.25 457.5 160.25 446.5"/><g class="cls-2"><path class="cls-9" d="M267,500.75l-48.5-84a5.5,5.5,0,1,1,9.52-5.5l48.5,84a5.5,5.5,0,1,1-9.52,5.5" transform="translate(-217.25 -128)"/><path class="cls-6" d="M267,500.75l-48.5-84a5.5,5.5,0,1,1,9.52-5.5l48.5,84a5.5,5.5,0,1,1-9.52,5.5Z" transform="translate(-217.25 -128)"/><path class="cls-9" d="M305.23,491.79l.91.41,1-2.15a2.51,2.51,0,0,0-4.57-2l-1,2.14.92.41-5.91,13.27a2.57,2.57,0,0,0,2.74,1.22Z" transform="translate(-217.25 -128)"/><path class="cls-6" d="M305.23,491.79l.91.41,1-2.15a2.51,2.51,0,0,0-4.57-2l-1,2.14.92.41-5.91,13.27a2.57,2.57,0,0,0,2.74,1.22Z" transform="translate(-217.25 -128)"/><path class="cls-9" d="M297.5,502.5s-3.14-3.27-4-3,3,4,4,5,4,4,5,4-3-4-3-4" transform="translate(-217.25 -128)"/><path class="cls-6" d="M297.5,502.5s-3.14-3.27-4-3,3,4,4,5,4,4,5,4-3-4-3-4" transform="translate(-217.25 -128)"/><path class="cls-9" d="M321.55,512.48l.74.67,1.26-1.4c.7-.78.43-2.15-.6-3.08s-2.42-1-3.11-.27l-1.26,1.4.74.67-7.81,8.67a3,3,0,0,0,.86,1.29,3,3,0,0,0,1.37.72Z" transform="translate(-217.25 -128)"/><path class="cls-6" d="M321.55,512.48l.74.67,1.26-1.4c.7-.78.43-2.15-.6-3.08s-2.42-1-3.11-.27l-1.26,1.4.74.67-7.81,8.67a3,3,0,0,0,.86,1.29,3,3,0,0,0,1.37.72Z" transform="translate(-217.25 -128)"/><path class="cls-9" d="M315.5,519.5s4,4,3,5c-1.41,1.41-6.41-3.41-7-4-1-1-4-4-3-5,.56-.56,3,0,5,2" transform="translate(-217.25 -128)"/><path class="cls-6" d="M315.5,519.5s4,4,3,5c-1.41,1.41-6.41-3.41-7-4-1-1-4-4-3-5,.56-.56,3,0,5,2" transform="translate(-217.25 -128)"/></g><g class="cls-2"><path class="cls-10" d="M358.5,580.5c2,2,4,3,2,5s-2,1-7,2-61-15-64-18-13-19-10-20,8,0,11,1,10,12,13,13,55,17,55,17" transform="translate(-217.25 -128)"/><path class="cls-11" d="M317.5,500.5a5.27,5.27,0,0,0-2,7c1,2,4,9,13,10s1,1,9,1,6-3,14-2,13,1,11,3,4-1-2,2-4.4,5.09-13,10c-7,4-11,9-13,10-3.16,1.58-11,7-14,8-1.61.54-9.81-4.47-25-7-12-2-16.94-14-23-10-3,2-5.37,7.58-1,15,2.36,4,13.35,14.45,18,16,18.73,6.23,41.41,11.53,43.14,12.38,2.35,1.14,5.21,1.29,7.86,2.62a11,11,0,0,1,2.5,1.7c1.15,1,1.95,2.16,3,3.26,1.9,2,4.55,4,11.53,5,13,2,11,3,25,4s9-2,22,0c4.48.69,14-.15,24.7-1.67,20.25-2.89,44.47-8.26,45.3-10.33,2-5-1-1-4-18s4-12-10-31-7-14-18-20,0-4-20-8-13-1-29-3-24-6-37-8-16,3-26,3-13,5-13,5" transform="translate(-217.25 -128)"/><path class="cls-12" d="M346.5,566.5a39.87,39.87,0,0,1-4,3c-1,0-3,1-4,0a4.94,4.94,0,0,0-3-1" transform="translate(-217.25 -128)"/><path class="cls-6" d="M346.5,566.5a39.87,39.87,0,0,1-4,3c-1,0-3,1-4,0a4.94,4.94,0,0,0-3-1" transform="translate(-217.25 -128)"/><path class="cls-13" d="M330.5,495.5c0,3-1,4-3,6-3.61,3.61-13.5,3.49-13,2s.92-6.2,4.74-7.52c4.26-1.48,11.26-.48,11.26-.48" transform="translate(-217.25 -128)"/><path class="cls-6" d="M330.5,495.5c0,3-1,4-3,6-3.61,3.61-13.5,3.49-13,2s.92-6.2,4.74-7.52C323.5,494.5,330.5,495.5,330.5,495.5Z" transform="translate(-217.25 -128)"/><path class="cls-13" d="M272.5,537.5c2,2,1,11,0,11,0,0-2.65-3.58-3-5-.94-3.78-1.18-4.35-.19-7.43a1.87,1.87,0,0,1,.67-.92l.52-.65c.52-.26,0,1,2,3" transform="translate(-217.25 -128)"/><path class="cls-6" d="M272.5,537.5c2,2,1,11,0,11,0,0-2.65-3.58-3-5-.94-3.78-1.18-4.35-.19-7.43a1.87,1.87,0,0,1,.67-.92l.52-.65C271,534.24,270.5,535.5,272.5,537.5Z" transform="translate(-217.25 -128)"/><path class="cls-14" d="M357,504c-1.15,5,5.5,6.5,12.5,10.5s14,4,8,10-16,9-22,15-11,10-9,17S353,566,361,573s14,13,17,13,20.5,6.46,22.5,6,13,2,17.5.76S435,590,439.23,589.25s22.21-3.84,23.74-4.79-51.47-85-51.47-85-25.55,0-33.77-2-19.23,0-20.73,6.5" transform="translate(-217.25 -128)"/><path class="cls-12" d="M352.83,581.37c-1,1-5.33,4.13-5.33,4.13-1,0-4,0-5-1" transform="translate(-217.25 -128)"/><path class="cls-6" d="M352.83,581.37c-1,1-5.33,4.13-5.33,4.13-1,0-4,0-5-1" transform="translate(-217.25 -128)"/><path class="cls-12" d="M362.5,588.5c-.22.35.16-1.21-3,1-.9.63-4-1-4-1" transform="translate(-217.25 -128)"/><path class="cls-6" d="M362.5,588.5c-.22.35.16-1.21-3,1-.9.63-4-1-4-1" transform="translate(-217.25 -128)"/></g><g class="cls-2"><path class="cls-15" d="M368.48,311.11a10.5,10.5,0,0,0-9.5,2.82A423.5,423.5,0,0,0,318,361c-15.81,21.13-20.66,32.88-30,51-2.66,5.15,1.85,11.33,7,14,12.32,6.4,9.68,18.6,22,25,3.57,1.85,51.76-24.62,55-27,26.9-19.79,15.08-10.46,42-30.25a10.66,10.66,0,0,0,1.83-1.72l39.78-47.42a10.56,10.56,0,0,0-6-17.13Z" transform="translate(-217.25 -128)"/><path class="cls-15" d="M257,451c0,1.46,3.5,10.5,7.5,6.5s7-10,9-13,9-8,13-9c3.32-.83,5.69-3.5,10.5-3.5,5,0,6,3,8,4,3.38,1.69-14.58-26.74-14.58-26.74L268.1,430a8.17,8.17,0,0,0-1.77,2.36Z" transform="translate(-217.25 -128)"/><path class="cls-16" d="M479,170c5,2.12,1,3,15,4s26,2,31,3,25,4,30,6,32,12,37,15l25,15c5,3,16,11,19,15a33.84,33.84,0,0,1,7,16c1,7,10.16,36.82,10,34-.07-1.15.93,18.65,3,24,2,5-42,17-48,13s-33,0-38-6-44-26-43-32-48-107-48-107" transform="translate(-217.25 -128)"/><path class="cls-17" d="M491,177c8,0,10.79,0,16.79,2s14,3,23,5,10,2,17,6,10,4,17,10,6,1,12,11,10,15,17,20,9,3,17,13,13,17,15,26,2,11,3,22-7,13,3,17S656,302.63,656,302.63L655.79,288,655,271.74a7.28,7.28,0,0,0-.23-1.46c-1.06-4-6.29-22.56-8.81-29.28-3-8-11-15.19-17.61-20.6s-16.6-16.4-29.6-21.4c-12.4-4.77-26.48-10.8-28-12s-64.79-15-73-15h-19" transform="translate(-217.25 -128)"/><path class="cls-18" d="M490,181c6.22,3,9.5,3,13.5,4s5,1,10,1,10,1,13,4,7,3,7,9,3,9,0,15-5,5-6,14-1.87,18.19-.5,23a78.94,78.94,0,0,1,3,13c1,6,4,7,4,10s15.13,18.68,19,22c7,6,17.24,9.71,18,13,1,4.28-1,8-1,12,0,23,2,38,2,40,0,4-103-31.5-103-31.5L490,184" transform="translate(-217.25 -128)"/><path class="cls-19" d="M504,246c4.27-1,13,0,15,3s3.91,12.86,7,18,6,4,11,14c4.71,9.42,9.06,15.93,16,22,8,7,21-5,16,16-2.1,8.81,0,12.22,0,18a68.87,68.87,0,0,0,4,24c4,11,29.51,26.31,14,36-8,5-25,14-32,19-5.53,3.95-42.92-25-48.25-24s-11.74,2-14.94,0-3.2-2-4.27-11-4.27-15-4.27-19-1.06-15.6-4.26-20.3-16-29.63-16-29.63l31-60.07Z" transform="translate(-217.25 -128)"/><path class="cls-20" d="M451,312l53-18c1.89-1.47,5-3,8-9l3-9c.5-.78,0-5,5-5,1.55,0,6.34,3.7,12.48,11.49l2.39,7.13a2.7,2.7,0,0,0,.38.71C538.06,294,539,294.08,540,297l2,2c-.58,1.34,1,1.75,1,3.22l3,9.78a24.05,24.05,0,0,0,2.41,1.54c3.3,2,7.59-2.54,11.59,1.46l4,6c.56,14.9,1.79,28.68,5,37,.08.2,8,14,8,14l22,22c0,.16-34,17-50,29-1.88,1.41-17.15,11.59-19,13-1.3,1-13.6,7.16-15,8l-24,14c-6,7-8.7,6.79-9,7l-4,2c-.43.3-3.62,1.64-4,2l-7,6c-1.5,1.41-12.73,7.62-13.1,5.59C442,415,425,371,419,372c-5,.84-13-11-13-11-8-19-5.28-55.87,4-67l41,18" transform="translate(-217.25 -128)"/><path class="cls-14" d="M571,305s-2,12-2,18-1,18,0,21,1,15,5,21a198.72,198.72,0,0,0,16,20l9,9s-10,1-12,3-19,9-26,16-28,20-28,20-24.15,11.33-35,20-72,44-72,44l-29,3s-13,12-13,14,0,16,3,19,59,52,68,53,51-13,51-13l138-67c33.83-16.34,56.55-47.56,44.68-83.21-1.82-5.47-2.89-9.73-2.68-11.79,1-10-11-65-14-74-2.55-7.65-8-13-14-28-5.62-14.05-3-24-3-24l-6,18-7.3,5.71c-1.81.7-3.19.08-4.7,1.29,0,0-12.81,4.33-17,3.6L581,312Z" transform="translate(-217.25 -128)"/><path class="cls-16" d="M600,408c7.86-1.5,11-1,12,4s6,3,0,11,2,9-12,13-7,4-26,9-30,7-42,14-16,11-29,20-18,16-24,16-11-1-7-6,8-6,14-12,93-65,114-69" transform="translate(-217.25 -128)"/><path class="cls-16" d="M578,315c-6.93-2-2,5,1,7s31,4.93,46,6c14,1,18,3,22,5,10.85,5.43,8.81-.45,15,15,6,14.84,9,34.09,9,35,3,8.7,3.33,35.33,6,44,2.12,6.89,5,14,6,8,2-12.2-3.89-14.53-3-22,1-8.12,1.46-5.86,0-16-2.11-14.59-4.22-32.23-9-51-2.57-10.07-9.29-18.4-12-26-5-14-3.46-22.44-5-25s-2,14.2-9,20c-3.73,3.11-11.82,3.95-16,5-8.35,2.09-37-1-51-5" transform="translate(-217.25 -128)"/><path class="cls-17" d="M631,326c14,1,18,0,21,3,4.53,4.53,8.75,8.25,11,15,3,9,8.85,31.27,9,32,4,19,5,34,6,37,0-7-1.33-33.19-2-35-4-21-2.85-23.76-7-34-2.63-6.5-8.78-15.78-11-22-4.09-11.45-2.71-19.49-4-21.59s-1.67,11.61-7.36,16.36c-3,2.54-9.67,3.23-13.09,4.09-6.82,1.71-14.83,4.27-2.59,5.14" transform="translate(-217.25 -128)"/><path class="cls-21" d="M599,394l-1-1s15.71-2.89,19-7c4-5,.12-31,0-32-2.38-19.6,17,17,17,24s2,12,0,16,11.77,21.2,17,27c8.41,9.33-9.8-3.66-26-15-7.43-5.2-18-8.24-23-10-.26-.09-2-1-4-2Z" transform="translate(-217.25 -128)"/><path class="cls-22" d="M599,394h0c-1-1-.91-1,0-1l27.43-1-9.14,2h12.19l-7.62,2,1.52,2-6.09-2L631,406l-33-12Z" transform="translate(-217.25 -128)"/><path class="cls-16" d="M372,505c15.31,12.76,25,9,25,5s-37-15-25-5" transform="translate(-217.25 -128)"/><path class="cls-16" d="M401,521c-6.71,0-33,13-28,24s1,18,18,26,25.4,17.66,38.2,15.83S446,580,447,576s4-1,0-16c-3.33-12.49-12.21-20.13-20.28-26.37-1.62-1.26-3.21-2.46-4.72-3.63-2.85-2.22-5-3.93-6.92-5.24-4.15-2.83-7.25-3.76-14.08-3.76" transform="translate(-217.25 -128)"/><path class="cls-23" d="M403,531c-3.8-1.26-14,1-15,5s-8,11-4,15,2,8,15,13,24,14,31,9,13-5,5-14-26-26-32-28" transform="translate(-217.25 -128)"/><path class="cls-24" d="M455,328c2.94-.59,8,30,18,40,2.24,2.24,10,3,14,2,2.69-.67,25,2,40-5,1.9-.89,22-29,24-26,5.71,8.57,1,20,6,27a28.68,28.68,0,0,0,24,12s8.62,17.67,17,16c1-.2-23.06,5.1-57.69,34.27C505,458,442,488,442,488s-34-17-35-49,1-55,12-67c7.28-7.94,29,0,32-3s-1-40,4-41" transform="translate(-217.25 -128)"/></g><g class="cls-2"><path class="cls-3" d="M303,437.53a6.69,6.69,0,0,1,1.5.59c7,3.69,23,18.23,24.3,23.34s1.72,9.33-5.77,12.32c-4.73,1.89-2.17-4.25-11.9-8.74-5.28-2.44-16.06-4.52-18.26-6.61-6.83-6.5-9.64-10.44-3.57-17.67,4.28-5.1,11.11-3.86,13.7-3.23" transform="translate(-217.25 -128)"/><path class="cls-4" d="M303,437.53a6.69,6.69,0,0,1,1.5.59c7,3.69,23,18.23,24.3,23.34s1.72,9.33-5.77,12.32c-4.73,1.89-2.17-4.25-11.9-8.74-5.28-2.44-16.06-4.52-18.26-6.61-6.83-6.5-9.64-10.44-3.57-17.67C293.62,435.66,300.45,436.9,303,437.53Z" transform="translate(-217.25 -128)"/><path class="cls-3" d="M326.5,459.5c3,2,5,6,3,10a46.25,46.25,0,0,1-10,13c-8.69,8-12.71,7.23-14,4a14.76,14.76,0,0,1,0-10c1.65-4.48,5.42-8.79,7-11,5-7,11.79-7.47,14-6" transform="translate(-217.25 -128)"/><path class="cls-4" d="M326.5,459.5c3,2,5,6,3,10a46.25,46.25,0,0,1-10,13c-8.69,8-12.71,7.23-14,4a14.76,14.76,0,0,1,0-10c1.65-4.48,5.42-8.79,7-11C317.5,458.5,324.29,458,326.5,459.5Z" transform="translate(-217.25 -128)"/><path class="cls-25" d="M314,479.83a4.07,4.07,0,0,1,1.09-.48c3.78-1,7.21-2.7,7.43.15.23,3-8.5,9.5-15,9-6-.46,4-7.11,6.48-8.67" transform="translate(-217.25 -128)"/><path class="cls-26" d="M314,479.83a4.07,4.07,0,0,1,1.09-.48c3.78-1,7.21-2.7,7.43.15.23,3-8.5,9.5-15,9C301.51,488,311.53,481.39,314,479.83Z" transform="translate(-217.25 -128)"/><path class="cls-6" d="M279.73,556.5s5.2,4.73,7.48,5.87,48.29,14.87,48.29,14.5,9,1.63,9,1.63" transform="translate(-217.25 -128)"/></g><g class="cls-2"><path class="cls-27" d="M415,128c9-.23,29,8,31,9s8,6,12,9,6,8.63,11,13.63,18,16,21,21,10,21,12,29,6.5,24.5,6.5,30.5,2,22,0,27S502.37,289,502.37,289H316.53l-2-7.87s-1-13,0-21,2-16,4-20,4.06-11.09,7.5-16.5a74.57,74.57,0,0,0,4-7c-1.05,3,2-12.63,5-16.63a33.5,33.5,0,0,0,5.5-9.87c1-3,15.5-20.13,18.5-22.13s8-6,12-7,11-13,15-17c3.16-3.16,9.5-15.5,29-16" transform="translate(-217.25 -128)"/><path class="cls-28" d="M385,145c-1,5-1,15-1,18s3,14,4,17-.06,2.89-.06,2.89L317,286.47,315,282l-1-22s2.69-12,3.85-15.52,4.43-13,5.29-13.73,7.77-25.1,9.81-27.93,8.12-14.27,13.59-21.54,6.94-9.81,8.7-11.55,7.89-9.64,9.76-10.73a75.7,75.7,0,0,0,8-6c4.53-4.38,12-8,12-8" transform="translate(-217.25 -128)"/><path class="cls-29" d="M405,179c5,0,21,3,25,5s25,10,29,14,17,13,22,19,18,16,21,24,7,20,6,29a83.74,83.74,0,0,1-9,28c-4,7-15,21-18,23,0,0-35.5,25.5-46.5,25.5s-35,4-45-1-17-12-22-15S360,327,356,325s-8-2-9-3c-.71-.71-7-3-10-6s-11-7-13-12-14-22-6-51,40.5-55.5,47.5-60.5S397,180,399,179s6,0,6,0" transform="translate(-217.25 -128)"/><path class="cls-30" d="M491.64,296c-3.53,2.12-8.48,5.66-12-.71s-5.66-5.65-6.36-17.67,3.53-13.44-2.83-25.46-12.19-16.1-13.17-22.19-3.1-13.87,4-12.46,7.77-.7,15.55,7.07,11.32,7.07,14.85,14.85,7.07,12.73,8.49,24-1.42,21.22-2.83,24.05a85.42,85.42,0,0,1-5.66,8.48" transform="translate(-217.25 -128)"/><path class="cls-30" d="M341.1,311.14c4,1.13,9.66,3.27,11.43-3.79s4-6.93,1.57-18.73-6.89-12.06-3.85-25.32,7.6-18.7,7-24.84-.6-14.2-7.06-11-7.7,1.33-13.2,10.85-9.1,9.76-10.5,18.19-3.53,14.12-2,25.42,6.85,20.12,8.95,22.49a84.9,84.9,0,0,0,7.66,6.73" transform="translate(-217.25 -128)"/><path class="cls-31" d="M385,235c-1.73,1-2,4-4,5s-5,5-7,7-3,5-4,8,3,4,4,6,2,2,6,2,6-2,10-2,1-3,8-2,8-1,8-3a33.25,33.25,0,0,0-1-10c-1.53-6.48-15.19-13.82-20-11" transform="translate(-217.25 -128)"/><path d="M396,246a5,5,0,1,1-5-5,5,5,0,0,1,5,5" transform="translate(-217.25 -128)"/><path class="cls-32" d="M392.94,243.28s-1.41-.12-.77.65l.65.76.64.77c.64.76.77-.64.12-1.41Z" transform="translate(-217.25 -128)"/><path class="cls-31" d="M426,231c4.64-1.86,11,7,12,10s8,9,7,13-6,4-10,4-5-4-11-3a22.6,22.6,0,0,1-11-1s-1-9,0-12a10.24,10.24,0,0,1,5-6c2-1,3-3,8-5" transform="translate(-217.25 -128)"/><path d="M432,244a5,5,0,1,1-5-5,5,5,0,0,1,5,5" transform="translate(-217.25 -128)"/><path class="cls-8" d="M429.85,243c.14-.23-.12-.66-.58-.95s-1-.34-1.12-.11.12.66.59.95,1,.34,1.11.11" transform="translate(-217.25 -128)"/><path class="cls-33" d="M404.92,264.35a6.71,6.71,0,0,1,5.36.22c5.63,2.87,12.15,8.43,13.72,8.43,2,0,9,2,11,3s9,6,9,7,0,2,4,2,14,5,16,8,5,17,1,29-13,19-21,21-26,13-36,11-23-6-26-11-8-11-10-17-4-15-2-20c1.19-3,4.41-11.28,8-16,2.45-3.22,5.78-3.66,6-4,5-8,17.5-20.5,20.5-21.5l.42-.15" transform="translate(-217.25 -128)"/><path class="cls-34" d="M404,284v7s1,0-1,1-6-6-6-6-1-4,1-5,6,3,6,3" transform="translate(-217.25 -128)"/><path class="cls-34" d="M406,284v8s8-3,10-6,2-2,2-5-2-3-4-2-8,5-8,5" transform="translate(-217.25 -128)"/><path d="M384,329c4.21,1,31.55-1,42.07-4A58.63,58.63,0,0,0,445,315l-7.36,6a78.72,78.72,0,0,1-11.57,6,49.6,49.6,0,0,1-13.67,3c-2.11,0-14.73,1-16.83,1S384,329,384,329" transform="translate(-217.25 -128)"/><path class="cls-35" d="M444,283.5s3,2,3,9-6,12-8,17,2,5,4,4,12-9,12-9,0-.5,2,.5,1.37-.66,0-1c-2-.5-9,9-12,16.5-.83,2.08-10,7.5-10,7.5s-12,8.5-17,9.5a179.6,179.6,0,0,1-22,2c-4,0-2-3-5-3s-7-2-8-4-6-10-6-11v-17c0-1,0-9.5-2-8.5s-5,7-6,8-4,19.5-4,25.5-5,16,0,23,11,11,11,15,5-2,5-2,2,1,3,7,5,12,8,12,9-10,11-10,10,0,9,1,5-8,8-5,3,4,4,11-1,16,5,16,11-7,14-10,2-11,3-14,4-12,5-8,4,11,6,11,1-4,5-7,5-1,8,0,8,0,8-6,4-13,4-18-4-12-5-19-3-16.5-3-18.5.28-.94-5-8.5-6.56-8.42-13-12.5c-3.78-2.39-12-3.5-12-3.5" transform="translate(-217.25 -128)"/></g></svg>